Coordinates
version=1
nRows=60
nColumns=12
inDegrees=yes

Units are S.I. units (second, meters, Newtons, ...)
Angles are in degrees

endheader
time	SC_y	SC_z	SC_x	AC_y	AC_z	AC_x	GH_y	GH_z	GH_yy	EL_x	PS_y
       0.0              -38.81          34.01           39.5          39.23        -0.3675          7.178          9.452           82.7          135.1          52.35          137.0
    0.0479              -38.81          34.01           39.5          39.24        -0.3677          7.179          9.436          82.69          135.1          52.35          137.0
   0.09581              -38.81          34.01          39.49          39.24        -0.3678          7.181          9.419          82.69          135.1          52.35          137.0
    0.1437              -38.81          34.01          39.49          39.24        -0.3679          7.182            9.4          82.68          135.1          52.35          137.0
    0.1916              -38.82          34.01          39.49          39.24         -0.368          7.184          9.381          82.67          135.1          52.35          137.0
    0.2395              -38.82          34.01          39.48          39.24        -0.3682          7.186           9.36          82.67          135.1          52.35          136.9
    0.2874              -38.82          34.01          39.48          39.24        -0.3683          7.188          9.338          82.66          135.1          52.36          136.9
    0.3353              -38.83          34.01          39.48          39.24        -0.3685           7.19          9.314          82.65          135.1          52.36          136.9
    0.3832              -38.83          34.01          39.47          39.24        -0.3687          7.192          9.288          82.64          135.1          52.36          136.9
    0.4311              -38.84          34.01          39.47          39.25        -0.3689          7.194          9.261          82.64          135.1          52.36          136.9
     0.479              -38.84          34.02          39.46          39.25        -0.3691          7.196          9.232          82.63          135.1          52.36          136.8
    0.5269              -38.85          34.02          39.46          39.25        -0.3693          7.199            9.2          82.62          135.1          52.37          136.8
    0.5748              -38.85          34.02          39.45          39.25        -0.3695          7.202          9.166           82.6          135.1          52.37          136.8
    0.6227              -38.86          34.02          39.45          39.26        -0.3698          7.205          9.129          82.59          135.1          52.37          136.8
    0.6706              -38.86          34.02          39.44          39.26        -0.3701          7.208           9.09          82.58          135.1          52.37          136.7
    0.7185              -38.87          34.02          39.44          39.26        -0.3704          7.212          9.046          82.56          135.2          52.38          136.7
    0.7664              -38.88          34.02          39.43          39.26        -0.3707          7.216          8.999          82.55          135.2          52.38          136.7
    0.8143              -38.89          34.02          39.42          39.27        -0.3711           7.22          8.948          82.53          135.2          52.39          136.6
    0.8622              -38.89          34.02          39.41          39.27        -0.3714          7.225          8.892          82.51          135.2          52.39          136.6
    0.9102               -38.9          34.02           39.4          39.27        -0.3719           7.23          8.831          82.49          135.2          52.39          136.5
    0.9581              -38.91          34.02          39.39          39.28        -0.3723          7.235          8.764          82.47          135.2           52.4          136.5
     1.006              -38.93          34.02          39.38          39.28        -0.3729          7.241           8.69          82.45          135.2          52.41          136.4
     1.054              -38.94          34.02          39.37          39.29        -0.3734          7.248          8.609          82.42          135.2          52.41          136.4
     1.102              -38.95          34.02          39.36           39.3         -0.374          7.256          8.518          82.39          135.2          52.42          136.3
      1.15              -38.97          34.02          39.34           39.3        -0.3747          7.264          8.418          82.36          135.2          52.43          136.2
     1.198              -38.99          34.03          39.32          39.31        -0.3755          7.274          8.306          82.32          135.3          52.43          136.1
     1.245              -39.01          34.03           39.3          39.32        -0.3764          7.284           8.18          82.28          135.3          52.44          136.0
     1.293              -39.03          34.03          39.28          39.33        -0.3774          7.296          8.039          82.23          135.3          52.46          135.9
     1.341              -39.05          34.03          39.26          39.34        -0.3785          7.309          7.879          82.18          135.3          52.47          135.8
     1.389              -39.08          34.03          39.23          39.35        -0.3798          7.324          7.698          82.12          135.3          52.48          135.6
     1.437              -39.12          34.03           39.2          39.36        -0.3812          7.341          7.491          82.05          135.4           52.5          135.5
     1.485              -39.15          34.04          39.16          39.38        -0.3829          7.361          7.253          81.97          135.4          52.52          135.3
     1.533               -39.2          34.04          39.12           39.4        -0.3848          7.384          6.979          81.88          135.4          52.54          135.1
     1.581              -39.25          34.04          39.07          39.42         -0.387          7.411          6.661          81.78          135.5          52.56          134.8
     1.629              -39.31          34.05          39.02          39.44        -0.3896          7.442          6.288          81.65          135.5          52.59          134.5
     1.677              -39.38          34.05          38.95          39.47        -0.3926          7.478          5.848          81.51          135.6          52.62          134.2
     1.724              -39.46          34.06          38.87          39.51        -0.3963          7.522          5.326          81.34          135.7          52.66          133.8
     1.772              -39.56          34.07          38.77          39.55        -0.4006          7.574            4.7          81.13          135.7          52.71          133.3
      1.82              -39.68          34.07          38.66           39.6        -0.4059          7.637          3.943          80.88          135.8          52.77          132.7
     1.868              -39.82          34.09          38.52          39.66        -0.4123          7.714          3.018          80.57          136.0          52.84          132.0
     1.916               -40.0           34.1          38.34          39.73        -0.4203          7.809          1.876           80.2          136.1          52.93          131.1
     1.964              -40.23          34.11          38.13          39.83        -0.4302          7.928          0.452          79.73          136.3          53.04          130.0
     2.012              -40.51          34.13          37.86          39.94        -0.4427          8.077         -1.342          79.13          136.5          53.18          128.6
      2.06              -40.87          34.16          37.51          40.09        -0.4585          8.267         -3.622          78.38          136.8          53.35          126.8
     2.108              -41.33          34.19          37.06          40.29        -0.4788           8.51          -6.54          77.42          137.2          53.58          124.5
     2.156              -41.93          34.24          36.49          40.53        -0.5049          8.822         -10.29          76.18          137.7          53.86          121.6
     2.204              -42.68          34.29          35.77          40.85        -0.5382           9.22         -15.07           74.6          138.4          54.23          117.8
     2.251              -43.63          34.36          34.85          41.24          -0.58          9.721         -21.08          72.61          139.2          54.69          113.1
     2.299              -44.79          34.44          33.74          41.73         -0.631          10.33         -28.42          70.19          140.2          55.25          107.4
     2.347              -46.13          34.54          32.44          42.29        -0.6902          11.04         -36.91          67.39          141.3          55.91          100.8
     2.395              -47.59          34.64          31.04          42.89        -0.7542          11.81         -46.11          64.35          142.5          56.61          93.57
     2.443              -49.04          34.75          29.64           43.5        -0.8182          12.57         -55.31          61.31          143.8          57.32          86.37
     2.491              -50.39          34.84          28.35          44.06        -0.8773          13.28         -63.81          58.51          144.9          57.97          79.73
     2.539              -51.54          34.92          27.24          44.54        -0.9283          13.89         -71.14          56.08          145.9          58.54           74.0
     2.587              -52.49          34.99          26.32          44.93        -0.9702          14.39         -77.15           54.1          146.7           59.0          69.29
     2.635              -53.25          35.05          25.59          45.25         -1.003          14.79         -81.94          52.52          147.3          59.37          65.55
     2.683              -53.84          35.09          25.02          45.49          -1.03           15.1         -85.68          51.28          147.8          59.65          62.63
      2.73               -54.3          35.12          24.58          45.69          -1.05          15.34          -88.6          50.32          148.2          59.88          60.34
     2.778              -54.66          35.15          24.23          45.84         -1.066          15.53         -90.88          49.56          148.5          60.05          58.56
     2.826              -54.95          35.17          23.96          45.95         -1.078          15.68         -92.68          48.97          148.7          60.19          57.16
